<svg xmlns="http://www.w3.org/2000/svg" width="49" height="25" fill="none" viewBox="0 0 49 25"><path fill="#fff" d="M.464 1.217h8.384q5.6 0 8.672 2.976 3.105 2.976 3.104 8.384 0 5.44-3.104 8.448-3.072 2.976-8.672 2.976H.464Zm8.128 19.424q7.872 0 7.872-8.064 0-8-7.872-8h-4v16.064Zm15.959-12.8h3.968v16.16h-3.968ZM28.743.513v3.936h-4.448V.513Zm19.608 7.328v16.16h-3.936v-2.592a5.3 5.3 0 0 1-2.112 2.112q-1.377.735-3.136.736-2.112 0-3.744-1.024t-2.528-2.912-.896-4.384.896-4.416q.928-1.952 2.56-3.008 1.632-1.088 3.712-1.088 1.76 0 3.136.768a5.1 5.1 0 0 1 2.112 2.08V7.841Zm-8.096 13.28q1.983 0 3.072-1.376t1.088-3.872q0-2.56-1.088-3.936t-3.104-1.376q-1.985 0-3.104 1.44-1.088 1.408-1.088 3.936 0 2.496 1.088 3.84 1.12 1.344 3.136 1.344"/></svg>